<svg width="225" height="225" version="1.1" xmlns="http://www.w3.org/2000/svg" desc="Created with imagetracer.js version 1.2.6" ><path fill="rgb(73,73,73)" stroke="rgb(73,73,73)" stroke-width="1" opacity="1" d="M 23.5 18 L 22.5 20 L 23.5 18 Z " /><path fill="rgb(73,73,73)" stroke="rgb(73,73,73)" stroke-width="1" opacity="1" d="M 52.5 19 L 55.5 23 L 52.5 19 Z " /><path fill="rgb(73,73,73)" stroke="rgb(73,73,73)" stroke-width="1" opacity="1" d="M 60.5 32 L 61 34.5 L 60 34.5 L 60.5 32 Z " /><path fill="rgb(73,73,73)" stroke="rgb(73,73,73)" stroke-width="1" opacity="1" d="M 60.5 40 L 61 42.5 L 60 42.5 L 60.5 40 Z " /><path fill="rgb(73,73,73)" stroke="rgb(73,73,73)" stroke-width="1" opacity="1" d="M 17.5 50 L 18.5 52 L 17.5 50 Z " /><path fill="rgb(73,73,73)" stroke="rgb(73,73,73)" stroke-width="1" opacity="1" d="M 56.5 51 L 55.5 53 L 56.5 51 Z " /><path fill="rgb(73,73,73)" stroke="rgb(73,73,73)" stroke-width="1" opacity="1" d="M 53.5 54 L 51.5 57 L 53.5 54 Z " /><path fill="rgb(73,73,73)" stroke="rgb(73,73,73)" stroke-width="1" opacity="1" d="M 23.5 56 L 24.5 58 L 23.5 56 Z " /><path fill="rgb(73,73,73)" stroke="rgb(73,73,73)" stroke-width="1" opacity="1" d="M 156.5 76 L 161 76.5 L 156.5 77 L 156.5 76 Z " /><path fill="rgb(73,73,73)" stroke="rgb(73,73,73)" stroke-width="1" opacity="1" d="M 165.5 76 L 171 76.5 L 165.5 77 L 165.5 76 Z " /><path fill="rgb(73,73,73)" stroke="rgb(73,73,73)" stroke-width="1" opacity="1" d="M 17.5 79 L 58 79.5 L 17.5 80 L 17.5 79 Z " /><path fill="rgb(73,73,73)" stroke="rgb(73,73,73)" stroke-width="1" opacity="1" d="M 84.5 79 L 123 79.5 L 84.5 80 L 84.5 79 Z " /><path fill="rgb(73,73,73)" stroke="rgb(73,73,73)" stroke-width="1" opacity="1" d="M 188.5 81 L 189.5 83 L 188.5 81 Z " /><path fill="rgb(73,73,73)" stroke="rgb(73,73,73)" stroke-width="1" opacity="1" d="M 194.5 85 L 199.5 91 L 194.5 85 Z " /><path fill="rgb(73,73,73)" stroke="rgb(73,73,73)" stroke-width="1" opacity="1" d="M 132.5 86 L 127.5 92 L 132.5 86 Z " /><path fill="rgb(73,73,73)" stroke="rgb(73,73,73)" stroke-width="1" opacity="1" d="M 201.5 93 L 202.5 95 L 201.5 93 Z " /><path fill="rgb(73,73,73)" stroke="rgb(73,73,73)" stroke-width="1" opacity="1" d="M 122.5 96 L 123.5 98 L 122.5 96 Z " /><path fill="rgb(73,73,73)" stroke="rgb(73,73,73)" stroke-width="1" opacity="1" d="M 153.5 112 L 156 112.5 L 153.5 113 L 153.5 112 Z " /><path fill="rgb(73,73,73)" stroke="rgb(73,73,73)" stroke-width="1" opacity="1" d="M 209.5 114 L 210 116.5 L 209 116.5 L 209.5 114 Z " /><path fill="rgb(73,73,73)" stroke="rgb(73,73,73)" stroke-width="1" opacity="1" d="M 133.5 116 L 130.5 120 L 133.5 116 Z " /><path fill="rgb(73,73,73)" stroke="rgb(73,73,73)" stroke-width="1" opacity="1" d="M 129.5 121 L 128.5 123 L 129.5 121 Z " /><path fill="rgb(73,73,73)" stroke="rgb(73,73,73)" stroke-width="1" opacity="1" d="M 210.5 121 L 211 125.5 L 210 125.5 L 210.5 121 Z " /><path fill="rgb(73,73,73)" stroke="rgb(73,73,73)" stroke-width="1" opacity="1" d="M 125.5 130 L 126 132.5 L 125 132.5 L 125.5 130 Z " /><path fill="rgb(73,73,73)" stroke="rgb(73,73,73)" stroke-width="1" opacity="1" d="M 170.5 135 L 171 210.5 L 170 210.5 L 170.5 135 Z " /><path fill="rgb(73,73,73)" stroke="rgb(73,73,73)" stroke-width="1" opacity="1" d="M 124.5 137 L 125 210.5 L 124 210.5 L 124.5 137 Z " /><path fill="rgb(209,209,209)" stroke="rgb(209,209,209)" stroke-width="1" opacity="1" d="M 35.5 13 L 40 13.5 L 35.5 14 L 35.5 13 Z " /><path fill="rgb(209,209,209)" stroke="rgb(209,209,209)" stroke-width="1" opacity="1" d="M 25.5 16 L 24.5 18 L 25.5 16 Z " /><path fill="rgb(209,209,209)" stroke="rgb(209,209,209)" stroke-width="1" opacity="1" d="M 50.5 17 L 51.5 19 L 50.5 17 Z " /><path fill="rgb(209,209,209)" stroke="rgb(209,209,209)" stroke-width="1" opacity="1" d="M 21.5 19 L 18.5 23 L 21.5 19 Z " /><path fill="rgb(209,209,209)" stroke="rgb(209,209,209)" stroke-width="1" opacity="1" d="M 56.5 23 L 57.5 25 L 56.5 23 Z " /><path fill="rgb(209,209,209)" stroke="rgb(209,209,209)" stroke-width="1" opacity="1" d="M 17.5 24 L 16.5 26 L 17.5 24 Z " /><path fill="rgb(209,209,209)" stroke="rgb(209,209,209)" stroke-width="1" opacity="1" d="M 13.5 33 L 14 41.5 L 13 41.5 L 13.5 33 Z " /><path fill="rgb(209,209,209)" stroke="rgb(209,209,209)" stroke-width="1" opacity="1" d="M 61.5 36 L 62 38.5 L 61 38.5 L 61.5 36 Z " /><path fill="rgb(209,209,209)" stroke="rgb(209,209,209)" stroke-width="1" opacity="1" d="M 18.5 52 L 22.5 57 L 18.5 52 Z " /><path fill="rgb(209,209,209)" stroke="rgb(209,209,209)" stroke-width="1" opacity="1" d="M 55.5 53 L 53.5 56 L 55.5 53 Z " /><path fill="rgb(209,209,209)" stroke="rgb(209,209,209)" stroke-width="1" opacity="1" d="M 34.5 61 L 41 61.5 L 34.5 62 L 34.5 61 Z " /><path fill="rgb(209,209,209)" stroke="rgb(209,209,209)" stroke-width="1" opacity="1" d="M 153.5 76 L 156 76.5 L 153.5 77 L 153.5 76 Z " /><path fill="rgb(209,209,209)" stroke="rgb(209,209,209)" stroke-width="1" opacity="1" d="M 171.5 76 L 174 76.5 L 171.5 77 L 171.5 76 Z " /><path fill="rgb(209,209,209)" stroke="rgb(209,209,209)" stroke-width="1" opacity="1" d="M 83.5 79 L 84 211 L 124 211.5 L 84.5 212 L 83 210.5 L 83.5 79 Z " /><path fill="rgb(209,209,209)" stroke="rgb(209,209,209)" stroke-width="1" opacity="1" d="M 16.5 80 L 17 211 L 58 211.5 L 17.5 212 L 16 210.5 L 16.5 80 Z " /><path fill="rgb(209,209,209)" stroke="rgb(209,209,209)" stroke-width="1" opacity="1" d="M 192.5 83 L 193.5 85 L 192.5 83 Z " /><path fill="rgb(209,209,209)" stroke="rgb(209,209,209)" stroke-width="1" opacity="1" d="M 134.5 84 L 133.5 86 L 134.5 84 Z " /><path fill="rgb(209,209,209)" stroke="rgb(209,209,209)" stroke-width="1" opacity="1" d="M 200.5 91 L 201.5 93 L 200.5 91 Z " /><path fill="rgb(209,209,209)" stroke="rgb(209,209,209)" stroke-width="1" opacity="1" d="M 126.5 92 L 125.5 94 L 126.5 92 Z " /><path fill="rgb(209,209,209)" stroke="rgb(209,209,209)" stroke-width="1" opacity="1" d="M 124.5 95 L 123.5 97 L 124.5 95 Z " /><path fill="rgb(209,209,209)" stroke="rgb(209,209,209)" stroke-width="1" opacity="1" d="M 144.5 112 L 153 112.5 L 144.5 113 L 144.5 112 Z " /><path fill="rgb(209,209,209)" stroke="rgb(209,209,209)" stroke-width="1" opacity="1" d="M 159.5 114 L 160.5 116 L 159.5 114 Z " /><path fill="rgb(209,209,209)" stroke="rgb(209,209,209)" stroke-width="1" opacity="1" d="M 135.5 115 L 133.5 118 L 135.5 115 Z " /><path fill="rgb(209,209,209)" stroke="rgb(209,209,209)" stroke-width="1" opacity="1" d="M 162.5 116 L 164.5 119 L 162.5 116 Z " /><path fill="rgb(209,209,209)" stroke="rgb(209,209,209)" stroke-width="1" opacity="1" d="M 210.5 117 L 211 120.5 L 210 120.5 L 210.5 117 Z " /><path fill="rgb(209,209,209)" stroke="rgb(209,209,209)" stroke-width="1" opacity="1" d="M 165.5 120 L 166.5 122 L 165.5 120 Z " /><path fill="rgb(209,209,209)" stroke="rgb(209,209,209)" stroke-width="1" opacity="1" d="M 211.5 128 L 212 210.5 L 210.5 212 L 171.5 212 L 171.5 211 L 211 211 L 211.5 128 Z " /><path fill="rgb(209,209,209)" stroke="rgb(209,209,209)" stroke-width="1" opacity="1" d="M 169.5 131 L 170 133.5 L 169 133.5 L 169.5 131 Z " /><path fill="rgb(209,209,209)" stroke="rgb(209,209,209)" stroke-width="1" opacity="1" d="M 125.5 133 L 126 135.5 L 125 135.5 L 125.5 133 Z " /><path fill="rgb(255,255,255)" stroke="rgb(255,255,255)" stroke-width="1" opacity="1" d="M 0 0 L 225 0 L 225 225 L 0 225 L 0 0 Z M 36 13 L 28 15 L 22 19 Q 15 24 13 34 L 13 42 L 18 53 Q 23 60 35 62 Q 47 62 54 56 L 61 45 Q 60 40 62 39 L 61 31 L 54 19 L 45 14 L 36 13 Z M 154 76 Q 142 78 135 84 L 124 96 L 123 79 L 84 79 L 83 80 L 83 211 L 85 212 L 124 212 L 125 211 L 125 137 L 128 125 L 131 120 L 142 113 L 156 113 L 162 116 L 167 123 L 170 135 L 170 211 L 172 212 L 211 212 L 212 211 L 212 129 L 211 128 L 211 118 L 206 100 L 198 87 L 188 80 L 179 77 L 174 76 L 154 76 Z M 18 79 L 16 81 L 16 211 L 18 212 L 58 212 L 58 80 L 58 79 L 18 79 Z " /><path fill="rgb(0,0,0)" stroke="rgb(0,0,0)" stroke-width="1" opacity="1" d="M 34.5 14 L 44.5 15 Q 52.6 17.9 57 24.5 Q 61.2 29.8 61 39.5 L 60 44.5 L 55 54 L 47.5 59 Q 42.5 62 33.5 61 Q 24.1 58.9 19 52.5 Q 13.1 46.4 14 33.5 Q 15.9 24.9 21.5 20 Q 26.3 15.3 34.5 14 Z " /><path fill="rgb(0,0,0)" stroke="rgb(0,0,0)" stroke-width="1" opacity="1" d="M 161.5 76 L 174.5 77 L 185.5 80 Q 195.2 84.3 201 92.5 L 208 107.5 L 210 117.5 L 210 125.5 L 211 126.5 L 211 211 L 171 211 L 171 135.5 L 169 125.5 Q 166.8 118.8 161.5 115 Q 155.7 109.8 142.5 112 Q 134.2 113.7 130 119.5 L 127 124.5 L 124 137.5 L 124 211 L 84.5 211 L 84 210.5 L 84 80 L 123 80 L 123 95.5 Q 120.7 96.8 123.5 98 Q 127.6 89.1 135.5 84 L 148.5 78 L 160.5 77 L 161.5 76 Z " /><path fill="rgb(0,0,0)" stroke="rgb(0,0,0)" stroke-width="1" opacity="1" d="M 17 80 L 57.5 80 L 58 80.5 L 58 211 L 17.5 211 L 17 210.5 L 17 80 Z " /></svg>